PathFileType	4	(X/Y/Z)	 s10c0302.trc
DataRate	CameraRate	NumFrames	NumMarkers	Units	OrigDataRate	OrigDataStartFrame	OrigNumFrames
200	200	7	50	mm	200	1001	2000
Frame#	Time	racr			lacr			c7			jug			rlel			rdr			llel			ldr			s2			lic			ric			lasi			rasi			rpsi			lpsi			rgt			lgt			rth1			rth2			rth3			rth4			rlfc			rmfc			rsh1			rsh2			rsh3			rsh4			rlmal			rmmal			rcal			rtoe			rmt5			lth1			lth2			lth4			lth3			llfc			lmfc			llmal			lmmal			lcal			lmt5			lsh1			lsh2			lsh3			lsh4			ltoe			SBIKE			LBIKE			RBIKE			
		X1	Y1	Z1	X2	Y2	Z2	X3	Y3	Z3	X4	Y4	Z4	X5	Y5	Z5	X6	Y6	Z6	X7	Y7	Z7	X8	Y8	Z8	X9	Y9	Z9	X10	Y10	Z10	X11	Y11	Z11	X12	Y12	Z12	X13	Y13	Z13	X14	Y14	Z14	X15	Y15	Z15	X16	Y16	Z16	X17	Y17	Z17	X18	Y18	Z18	X19	Y19	Z19	X20	Y20	Z20	X21	Y21	Z21	X22	Y22	Z22	X23	Y23	Z23	X24	Y24	Z24	X25	Y25	Z25	X26	Y26	Z26	X27	Y27	Z27	X28	Y28	Z28	X29	Y29	Z29	X30	Y30	Z30	X31	Y31	Z31	X32	Y32	Z32	X33	Y33	Z33	X34	Y34	Z34	X35	Y35	Z35	X36	Y36	Z36	X37	Y37	Z37	X38	Y38	Z38	X39	Y39	Z39	X40	Y40	Z40	X41	Y41	Z41	X42	Y42	Z42	X43	Y43	Z43	X44	Y44	Z44	X45	Y45	Z45	X46	Y46	Z46	X47	Y47	Z47	X48	Y48	Z48	X49	Y49	Z49	X50	Y50	Z50	
1001	5.0050	675.592123	1297.718019	-20.027890	680.129220	1323.988476	-348.239719	672.607411	1345.654592	-177.148070	660.066936	1201.218226	-188.439106	554.582765	1059.463305	74.309148	645.355553	879.479217	-15.294887	588.673846	1072.998130	-460.994783	670.431728	881.676486	-372.113237	147.732814	1168.145684	-210.919976	313.318032	1168.937499	-357.599704	317.201763	1147.949203	-69.403119	338.124240	1073.690426	-329.354847	305.819754	1069.814822	-73.140125	188.762143	1217.649472	-147.501556	205.911819	1224.054368	-257.051602	187.723536	1062.673741	-23.202362	227.940876	1041.490895	-399.741711	258.479869	922.307805	-0.942828	326.564200	865.419246	-9.259654	355.147982	784.853514	-16.687001	356.390122	888.199944	-13.710879	425.872261	687.435413	-34.076942	419.658140	679.392198	-146.899516	357.594072	596.472090	-6.306647	336.313436	511.986220	-23.901133	277.589826	448.720244	-27.773785	361.202329	502.936852	-52.299515	226.618417	361.130682	-44.952162	250.842015	377.389538	-126.468272	170.162477	338.920947	-92.138126	410.987438	310.794160	-79.371780	326.023645	285.798620	-19.521264	293.660773	922.036630	-401.412288	352.259482	862.092414	-378.567543	379.800127	881.080675	-363.822095	375.071826	777.497133	-368.642349	411.884034	673.945956	-345.635902	392.220899	668.713476	-226.722495	83.297798	477.996797	-388.992703	87.425555	465.062586	-309.881813	38.777947	512.207642	-345.379050	42.956657	331.575878	-396.051444	306.017445	618.227285	-392.432720	250.657477	552.654885	-384.296134	167.441856	520.512395	-394.000450	264.427717	532.946175	-354.439630	88.339885	262.519533	-332.218469	-203.967427	832.994853	-223.863428	-78.182389	81.908601	-423.564971	-102.606247	80.523031	-24.355999	
1002	5.0100	672.473551	1299.416964	-19.639753	681.451351	1325.429530	-348.619922	671.624622	1346.583658	-177.370177	660.354525	1202.016986	-189.618953	553.229101	1060.269931	71.840743	645.401610	879.660366	-15.493337	590.604550	1073.719244	-461.031475	670.658494	881.565898	-371.747911	146.952993	1166.412287	-208.137562	311.225561	1168.313419	-356.820443	319.348747	1146.522991	-68.535098	336.364917	1073.202797	-328.371084	308.114394	1068.139476	-71.684099	189.816059	1214.760870	-144.452843	204.981052	1222.410870	-254.515408	190.498150	1058.581275	-20.624384	226.659559	1040.680693	-397.302003	259.871248	917.311620	0.706192	326.214959	858.195952	-9.457765	352.408605	776.772559	-17.673967	356.753343	880.111731	-14.266152	418.985262	677.900216	-36.788114	411.911518	669.813347	-147.889725	350.072982	588.341190	-7.660718	330.477305	503.214898	-24.458667	272.891108	438.996058	-28.576782	355.913059	494.322405	-52.361685	223.259410	349.811113	-45.342695	247.758135	365.904604	-126.881831	167.154233	327.705050	-92.471794	408.231864	300.315773	-79.496292	323.192241	275.015431	-19.630983	294.215662	922.840751	-400.417928	353.975194	863.783807	-377.934411	381.354350	883.239640	-363.364058	377.561013	779.074782	-367.523520	417.598198	677.039428	-345.007829	395.728124	672.095259	-225.393432	87.239771	487.882470	-388.276369	90.930032	474.452876	-309.182115	43.049608	522.431658	-344.754214	45.651358	341.909258	-395.901997	312.289578	622.799061	-391.192390	255.468195	557.124751	-382.073945	172.130174	527.328027	-393.064099	268.978124	538.445416	-352.695809	90.499942	272.362868	-332.152239	-203.954013	832.976213	-223.866763	-78.177174	81.874787	-423.551622	-102.587499	80.506826	-24.335206	
1003	5.0150	669.529368	1300.966066	-19.167835	682.817309	1326.863436	-348.634692	670.691519	1347.435324	-177.542536	660.713896	1203.135661	-191.171392	551.876813	1061.049547	69.394795	645.433585	879.763204	-15.593853	592.808690	1074.654357	-461.041042	671.143411	882.122069	-372.918206	146.569111	1164.084591	-204.597185	310.659819	1167.950916	-357.124179	321.291994	1144.983346	-67.591380	333.222347	1071.895711	-326.438025	309.939095	1065.636481	-72.647858	191.367800	1211.950922	-141.657820	203.847840	1220.643652	-251.977987	193.386799	1054.173810	-18.269111	225.297227	1039.731613	-394.961174	261.197647	911.670803	1.430873	325.630552	850.701384	-9.846312	349.433906	768.728391	-18.930580	356.767788	871.949009	-14.928034	411.825424	670.152817	-39.581175	401.394277	661.326682	-150.382285	341.872942	580.541741	-9.178175	324.381213	494.830549	-25.118934	268.082320	429.340615	-29.439876	351.340773	485.933562	-52.383063	219.478226	339.072451	-45.426709	244.098113	355.056131	-127.422191	163.766155	316.919526	-92.511359	404.868228	289.952135	-78.814018	319.795919	264.302731	-19.868189	294.741585	923.365659	-399.518458	355.625225	865.518753	-377.384102	382.802201	885.432008	-362.931973	380.538088	781.122370	-367.112986	423.524843	680.209587	-344.551679	399.967698	676.120023	-224.706869	91.424639	497.293082	-387.323313	94.864339	484.649934	-307.500994	47.520174	532.497042	-344.095035	48.997293	352.179127	-395.716379	318.584237	627.914367	-390.173026	260.800159	562.904297	-380.998984	176.630585	534.208789	-391.803024	273.900367	544.305195	-351.380322	93.372152	282.350906	-332.121785	-203.961211	832.961347	-223.863189	-78.153195	81.865885	-423.535224	-102.587215	80.517488	-24.325725	
1004	5.0200	666.671644	1302.412661	-18.957707	684.168062	1328.250282	-348.628099	669.603196	1348.385525	-177.777759	660.916377	1204.096425	-192.368392	550.549601	1061.672753	67.122482	645.405172	879.812866	-15.612162	595.270150	1075.454608	-460.620133	671.283488	882.044237	-372.685679	146.160433	1161.532734	-200.856894	308.203454	1166.943277	-355.872083	322.801847	1142.343339	-69.350184	331.202200	1071.264346	-325.303669	312.287928	1063.551231	-71.548216	191.551842	1209.474126	-138.557474	202.631499	1218.646901	-249.461910	196.358476	1049.585379	-15.811132	223.843380	1038.538089	-392.686311	262.187212	905.795299	2.397980	324.782412	843.241443	-10.388635	346.118093	760.745528	-20.403383	356.136051	863.523305	-16.433052	404.292250	663.688854	-42.266870	390.722030	654.610230	-153.733759	333.800750	572.689956	-10.797706	317.872298	486.560412	-26.272948	263.056193	419.911178	-30.188757	345.626102	478.045536	-52.617367	215.533923	328.761452	-45.392064	240.527714	344.783288	-127.387405	160.904744	306.125427	-93.529002	401.116922	279.488094	-79.095397	315.959409	253.920615	-20.051487	295.135615	923.786731	-398.673804	357.269355	867.085333	-376.809314	384.155844	887.562988	-362.506508	383.658733	783.152028	-366.643815	429.524177	683.431685	-343.987104	404.332926	679.644594	-224.518295	96.278785	507.377663	-386.660332	98.828603	493.286411	-307.759703	52.171010	542.466087	-343.624275	52.980463	362.277228	-395.417062	324.940908	633.591005	-389.417641	266.414786	569.416074	-380.357004	181.821411	541.750422	-390.995941	279.214321	550.592070	-350.596613	96.980420	292.046475	-331.878098	-203.944461	832.939595	-223.912352	-78.159493	81.854851	-423.526856	-102.576277	80.491287	-24.335139	
1005	5.0250	664.053269	1303.618776	-18.750271	685.474580	1329.650259	-348.572772	668.586015	1349.107415	-178.118003	661.003500	1205.029295	-193.926042	549.377341	1062.216592	65.245862	645.324940	879.810889	-15.498852	597.794233	1076.202122	-460.282862	671.443223	881.975148	-372.428407	145.260637	1159.362183	-198.560658	305.869070	1166.008502	-354.682712	324.485826	1140.801134	-68.457642	329.034124	1070.571082	-324.102898	314.649807	1061.505618	-70.613429	191.489561	1206.858253	-135.586212	201.216388	1216.484436	-246.894110	199.371749	1044.893212	-13.451673	222.196431	1037.272922	-390.534108	262.814507	899.804868	3.316561	323.531524	835.710120	-11.119751	342.123571	752.816639	-22.131058	354.765794	855.307821	-18.015311	396.560883	657.700151	-44.619417	379.985918	649.360434	-156.928981	325.636811	565.061467	-12.308474	311.414699	478.410161	-27.170935	257.897748	410.707900	-30.793938	339.441376	470.191422	-53.324466	211.243909	319.060417	-45.184084	236.833945	334.935115	-127.431692	156.771790	296.783896	-93.442413	396.997505	268.843820	-79.453741	311.668160	243.776142	-20.303692	295.609609	924.148702	-397.939160	358.734645	868.782751	-375.767806	385.322533	889.242217	-360.969480	386.959150	785.239175	-366.098811	435.745968	686.959165	-343.635132	409.287132	682.965372	-224.378437	101.460884	517.075135	-386.140524	103.265507	502.588231	-307.343691	57.018101	552.184057	-343.041554	57.686537	372.186008	-395.172051	331.347640	639.744494	-388.978439	272.290238	577.087680	-380.410100	187.068648	549.590303	-390.163477	284.920186	557.585199	-350.569370	101.501498	301.808533	-331.666302	-203.968138	832.922222	-223.899745	-78.165246	81.860571	-423.536826	-102.574636	80.444222	-24.331369	
1006	5.0300	661.714209	1304.814482	-18.939397	686.689758	1331.065096	-348.582770	667.603835	1349.938492	-178.516079	660.756321	1206.057535	-195.237230	548.386613	1062.682143	63.843665	645.207331	879.720538	-15.417988	600.360360	1076.960030	-459.898859	671.590450	882.023650	-372.289430	144.494082	1156.808123	-194.557123	303.488509	1165.067842	-353.511986	326.120922	1139.211544	-67.610865	326.789621	1069.881014	-322.930716	316.982493	1059.151193	-69.789637	191.533378	1203.929497	-132.753115	199.782653	1214.254680	-244.298607	202.318903	1040.141772	-10.992938	220.477158	1035.895439	-388.534653	263.145329	894.168659	4.755470	321.537093	828.672236	-11.865209	337.382689	745.364307	-24.637946	353.358508	847.403348	-19.210024	388.690307	651.780234	-47.079255	369.272221	643.922484	-159.597985	317.383184	557.810080	-13.768488	304.968938	470.650535	-27.958054	252.652473	401.975953	-31.424237	333.168807	462.841726	-54.067733	206.740450	309.930077	-45.132020	232.448270	325.750340	-127.611984	152.273265	288.421766	-93.409662	392.341238	258.347158	-79.755922	306.835855	233.927481	-20.529362	295.976818	924.284084	-397.105608	360.380607	870.364764	-374.999345	386.609002	891.490436	-360.344747	390.422035	787.519384	-365.651209	442.036015	690.773588	-343.205959	414.759812	686.292645	-224.452626	106.664154	526.481850	-385.564766	109.161379	512.657632	-305.030818	61.821991	561.729629	-342.426412	62.851410	381.803239	-394.882053	337.716600	646.195925	-388.675857	277.951489	584.097283	-380.055799	192.896769	557.981210	-389.883361	289.701484	563.963579	-348.760803	106.742145	311.513224	-331.416030	-203.978348	832.909150	-223.872138	-78.180034	81.867710	-423.556335	-102.581332	80.435646	-24.360479	
1007	5.0350	659.733387	1305.836710	-19.511747	687.792686	1332.433209	-348.635549	666.558714	1350.571552	-179.071366	660.439705	1206.981877	-196.656178	547.523517	1063.002325	62.632416	645.093327	879.556471	-15.312819	602.871622	1077.520288	-459.488469	671.796927	882.142498	-372.231311	143.890369	1153.675356	-190.476422	301.180762	1164.123723	-352.294887	327.826362	1137.372496	-66.924570	324.393956	1069.124552	-321.654013	319.308240	1056.813188	-68.944843	191.449151	1200.607700	-129.310772	198.260528	1212.035458	-241.592521	205.285716	1035.153200	-8.698074	218.520522	1034.498411	-386.572739	263.155293	889.423546	6.540585	318.913028	822.246938	-12.716932	331.805486	738.807069	-26.575651	351.192671	840.038381	-20.437536	380.641221	645.601304	-49.725656	358.796218	638.328806	-161.843621	309.600423	550.876961	-15.269775	298.592371	463.436695	-28.889749	247.102552	394.113588	-32.118077	326.763544	455.890472	-54.626176	201.698720	301.505722	-45.292582	227.674460	316.943847	-127.764506	147.590490	280.781729	-93.716965	387.325957	248.095022	-80.105889	301.495982	224.591223	-20.885829	296.343441	924.459764	-396.022043	362.153894	872.018499	-374.151215	387.937572	893.876974	-359.624133	394.317064	790.071703	-365.084812	448.696443	695.455319	-342.851518	418.524938	689.121970	-226.058823	111.946892	535.872184	-385.036111	113.839682	521.471831	-305.372037	66.852194	571.163383	-342.290272	68.589945	391.186944	-394.632627	344.014739	652.933034	-388.512005	283.719742	591.289924	-379.798140	198.297680	566.107577	-389.300136	295.398988	570.324219	-348.295949	112.644958	320.989986	-331.103801	-204.006401	832.899875	-223.874706	-78.196796	81.874703	-423.593592	-102.611063	80.434367	-24.390362	
